<svg viewBox="0 0 24 24" fill="currentColor" xmlns="http://www.w3.org/2000/svg"><path d="M13.0607 8.11073L14.4749 6.69652C16.4275 4.7439 19.5934 4.7439 21.546 6.69652C23.4986 8.64914 23.4986 11.815 21.546 13.7676L20.1317 15.1818L18.7175 13.7676L20.1317 12.3534C21.3033 11.1819 21.3033 9.28238 20.1317 8.11073C18.9602 6.93916 17.0607 6.93916 15.8891 8.11073L14.4749 9.52494L13.0607 8.11073ZM15.8891 15.8889L14.4749 17.3031C12.5223 19.2557 9.35647 19.2557 7.40385 17.3031C5.45123 15.3505 5.45123 12.1847 7.40385 10.2321L8.81806 8.81784L10.2323 10.2321L8.81806 11.6463C7.64648 12.8178 7.64648 14.7173 8.81806 15.8889C9.98963 17.0605 11.8891 17.0605 13.0607 15.8889L14.4749 14.4747L15.8891 15.8889ZM14.8284 7.75717L16.2426 9.17139L9.17157 16.2425L7.75736 14.8283L14.8284 7.75717Z"/></svg>
